<svg xmlns="http://www.w3.org/2000/svg" xmlns:xlink="http://www.w3.org/1999/xlink" width="288" height="287" viewBox="0 0 288 287">
  <defs>
    <clipPath id="clip-アートボード_31">
      <rect width="288" height="287"/>
    </clipPath>
  </defs>
  <g id="アートボード_31" data-name="アートボード – 31" clip-path="url(#clip-アートボード_31)">
    <g id="グループ_10" data-name="グループ 10" transform="translate(-525 -757)">
      <text id="コ" transform="translate(551 923)" fill="#ffd00c" font-size="165" font-family="FZGonta-kana" letter-spacing="0.03em"><tspan x="0" y="0">コ</tspan></text>
      <path id="パス_32" data-name="パス 32" d="M129.5,0c32.613,0,90.818,14.806,90.818,14.806s2.587-1.224,17.224,2.916C254.773,22.594,259,40.515,259,48.5c0,14.571-11.315,20.158-38.682,29.115-22.564,7.386-47.174,6.927-79.788,6.927-32.113,0-52,12.125-84.373,0S0,63.259,0,48.5C0,37.3-.351,30.074,16.912,21.746c3.428.446,15.995-10.576,20.319-11.039C63.438,7.9,93.411,0,129.5,0Z" transform="translate(547 941)" fill="#58cbff"/>
      <path id="パス_31" data-name="パス 31" d="M0,0,6.055,3.224H18.81L25.171,0V116.976H0Z" transform="translate(661 835.495)" fill="#58cbff"/>
      <g id="楕円形_4" data-name="楕円形 4" transform="translate(655 804)" fill="#555" stroke="#fff" stroke-width="11">
        <circle cx="19" cy="19" r="19" stroke="none"/>
        <circle cx="19" cy="19" r="13.5" fill="none"/>
      </g>
      <text id="_" data-name="!" transform="translate(696 941)" fill="#f76e6e" font-size="206" font-family="Moji-Heavy, Moji" font-weight="800" letter-spacing="0.03em"><tspan x="0" y="0">!</tspan></text>
    </g>
  </g>
</svg>
