<svg xmlns="http://www.w3.org/2000/svg" xmlns:xlink="http://www.w3.org/1999/xlink" width="400" height="400" viewBox="0 0 400 400">
  <defs>
    <filter id="コ" x="68" y="109" width="183" height="187" filterUnits="userSpaceOnUse">
      <feOffset dx="-7" dy="13" input="SourceAlpha"/>
      <feGaussianBlur stdDeviation="3" result="blur"/>
      <feFlood flood-opacity="0.251"/>
      <feComposite operator="in" in2="blur"/>
      <feComposite in="SourceGraphic"/>
    </filter>
    <filter id="_" x="213" y="50" width="122" height="269" filterUnits="userSpaceOnUse">
      <feOffset dx="-7" dy="13" input="SourceAlpha"/>
      <feGaussianBlur stdDeviation="3" result="blur-2"/>
      <feFlood flood-opacity="0.239"/>
      <feComposite operator="in" in2="blur-2"/>
      <feComposite in="SourceGraphic"/>
    </filter>
    <filter id="NO_" x="-10.348" y="137.667" width="171" height="123" filterUnits="userSpaceOnUse">
      <feOffset dx="-7" dy="13" input="SourceAlpha"/>
      <feGaussianBlur stdDeviation="3" result="blur-3"/>
      <feFlood flood-opacity="0.161"/>
      <feComposite operator="in" in2="blur-3"/>
      <feComposite in="SourceGraphic"/>
    </filter>
    <clipPath id="clip-アートボード_32">
      <rect width="400" height="400"/>
    </clipPath>
  </defs>
  <g id="アートボード_32" data-name="アートボード – 32" clip-path="url(#clip-アートボード_32)">
    <rect width="400" height="400" fill="#ddd"/>
    <g id="グループ_10" data-name="グループ 10" transform="translate(-467 -669)">
      <g transform="matrix(1, 0, 0, 1, 467, 669)" filter="url(#コ)">
        <text id="コ-2" data-name="コ" transform="translate(84 254)" fill="#ccc" font-size="165" font-family="FZGonta-kana" letter-spacing="0.03em"><tspan x="0" y="0">コ</tspan></text>
      </g>
      <g id="パス_33" data-name="パス 33" transform="translate(655 804)" fill="#ccc">
        <path d="M 19 32.5 C 11.55607795715332 32.5 5.5 26.44392204284668 5.5 19 C 5.5 11.55607795715332 11.55607795715332 5.5 19 5.5 C 26.44392204284668 5.5 32.5 11.55607795715332 32.5 19 C 32.5 26.44392204284668 26.44392204284668 32.5 19 32.5 Z" stroke="none"/>
        <path d="M 19 11 C 14.58878326416016 11 11 14.58878326416016 11 19 C 11 23.41121673583984 14.58878326416016 27 19 27 C 23.41121673583984 27 27 23.41121673583984 27 19 C 27 14.58878326416016 23.41121673583984 11 19 11 M 19 0 C 29.49340057373047 0 38 8.506584167480469 38 19 C 38 29.49340057373047 29.49340057373047 38 19 38 C 8.506584167480469 38 0 29.49340057373047 0 19 C 0 8.506584167480469 8.506584167480469 0 19 0 Z" stroke="none" fill="#ddd"/>
      </g>
      <g transform="matrix(1, 0, 0, 1, 467, 669)" filter="url(#_)">
        <text id="_2" data-name="!" transform="translate(229 272)" fill="#ccc" font-size="206" font-family="Moji-Heavy, Moji" font-weight="800" letter-spacing="0.03em"><tspan x="0" y="0">!</tspan></text>
      </g>
      <g id="グループ_12" data-name="グループ 12" transform="translate(3.786 -7.799)">
        <g transform="matrix(1, 0, 0, 1, 463.21, 676.8)" filter="url(#NO_)">
          <text id="NO_2" data-name="NO " transform="translate(5.65 216.67)" fill="gray" font-size="80" font-family="Nikkyou-Sans, Nikkyou Sans" letter-spacing="0.03em"><tspan x="0" y="0">NO </tspan></text>
        </g>
        <text id="IMAGE" transform="translate(603.428 892.598)" fill="gray" font-size="80" font-family="Nikkyou-Sans, Nikkyou Sans" letter-spacing="0.03em"><tspan x="0" y="0">IMAGE</tspan></text>
      </g>
    </g>
    <text id="_2020_プロコミ_" data-name="© 2020 プロコミ！" transform="translate(126 390)" fill="gray" font-size="16" font-family="HiraginoSans-W4, Hiragino Sans" letter-spacing="0.03em"><tspan x="0" y="0">© 2020 プロコミ！</tspan></text>
  </g>
</svg>
