<svg xmlns="http://www.w3.org/2000/svg" width="252.563" height="404.97" viewBox="0 0 252.563 404.97"><defs><style>.cls-1{fill:#fff;}.cls-2{fill:#7a7473;}.cls-3{fill:#211715;}.cls-4{fill:#b3b3b3;}.cls-5{fill:none;}.cls-6{fill:#f4b3b3;}</style></defs><g id="レイヤー_2" data-name="レイヤー 2"><g id="layer"><g id="woman"><path class="cls-1" d="M75.541,188.834c1-.341,17.437-8.029,17.781-8.153,5.2-1.877,4.991-5.218,5.646-8.955a72.588,72.588,0,0,0,1.154-13.388c-16.329-7.946-25.063-25.773-27.644-42.784a11.12,11.12,0,0,1-8.237-2.967,20.477,20.477,0,0,1-4.879-7.006,35.1,35.1,0,0,1-3.025-17.227,11.53,11.53,0,0,1,1.03-4.367A7,7,0,0,1,62.4,80.319a6.9,6.9,0,0,1,6.907,3.136c9.719-2.026,32.539-6.614,43.719-11.741,6.329-2.9,24.437-17.539,27.168-21.6l.244-.288a102.782,102.782,0,0,0,12.674,16.543C158.7,72.451,171.7,79.5,180.129,83.336a6.882,6.882,0,0,1,6.821-3.017,7,7,0,0,1,5.037,3.668,11.53,11.53,0,0,1,1.03,4.367,35.113,35.113,0,0,1-3.024,17.227,20.466,20.466,0,0,1-4.88,7.006,10.966,10.966,0,0,1-8.724,2.908c-3.447,24.565-16.376,39.635-29.282,43.953a73.662,73.662,0,0,0,1.158,12.278c.655,3.737.45,7.078,5.647,8.955.344.124,15.081,7.136,15.607,7.352a53.441,53.441,0,0,1-45.8,25.119C91.721,213.152,75.541,188.834,75.541,188.834Z"/><path class="cls-2" d="M184.748,46.645c-3.046-10.174-7.934-19.636-14.322-25.932-13.263-13.072-24.172-18.3-48.991-18.3A63.484,63.484,0,0,0,77.594,20.051C63.472,33.863,57.318,55.2,60.3,72.446l1.39,8.033a5.768,5.768,0,0,1,.712-.16,6.878,6.878,0,0,1,6.9,3.142c9.733-2.034,32.547-6.621,43.724-11.747,6.329-2.9,24.437-17.539,27.168-21.6l.274-.229a103.317,103.317,0,0,0,12.644,16.484C158.7,72.451,171.7,79.5,180.128,83.336a6.866,6.866,0,0,1,6.519-3.054l.3-.941c1.2-3.754,1.544-9.44,1.218-14.124A86.537,86.537,0,0,0,184.748,46.645Z"/><path class="cls-2" d="M62.337,116.35a7.3,7.3,0,0,1,4.888-1.789,10.07,10.07,0,0,0,5.253.995c2.287,15.071,9.4,30.782,22.353,39.7-7.421,6.277-21.447,7.148-29.912.29-7.8-6.316-10.893-18.252-8.48-28.55C57.061,124.338,58.967,119.1,62.337,116.35Z"/><path class="cls-3" d="M67.039,112.153c-5.523.117-9.212,4.758-11.257,9.433a31.334,31.334,0,0,0-2.335,16.1A30.811,30.811,0,0,0,60.7,154.818a24.52,24.52,0,0,0,16.1,7.774c6.379.651,13.4-.846,18.583-4.735a2.476,2.476,0,0,0,.861-3.284,2.416,2.416,0,0,0-3.283-.861c-7.575,5.687-19.923,5.923-27.138-.549-7.363-6.605-9.567-18.351-6.485-27.55a19.33,19.33,0,0,1,3.007-5.855,6.359,6.359,0,0,1,4.7-2.8c3.085-.065,3.1-4.865,0-4.8Z"/><path class="cls-3" d="M66.06,141.327a14.29,14.29,0,0,0,5.6,7.374c2.316,1.719,5.393,3.064,8.333,2.805a2.4,2.4,0,1,0,0-4.8,7,7,0,0,1-.832.026c-.143,0-.285-.019-.427-.026-.463-.025.554.109.06.011a11.954,11.954,0,0,1-1.621-.422c-.149-.052-.3-.11-.444-.165-.521-.195.49.232-.017-.01-.295-.14-.589-.282-.876-.439a14.814,14.814,0,0,1-1.618-1.026c-.257-.186-.213-.119.017.022a3.366,3.366,0,0,1-.391-.317q-.382-.321-.745-.667a16.072,16.072,0,0,1-1.266-1.382c-.19-.229.285.406.04.045-.088-.129-.181-.254-.267-.384q-.252-.38-.47-.78c-.07-.13-.138-.261-.2-.394l-.062-.132c-.1-.235-.08-.175.072.177a4.449,4.449,0,0,0-.261-.792,2.4,2.4,0,1,0-4.628,1.276Z"/><path class="cls-3" d="M189.263,79.979c2.485-8.026,1.476-17.109-.066-25.217A82.228,82.228,0,0,0,181.03,31.23,58.8,58.8,0,0,0,167.371,14.6a57.288,57.288,0,0,0-15.415-9.825A64.509,64.509,0,0,0,132.516.44c-8.56-.731-17.256-.693-25.668,1.214C93.015,4.791,79.839,12.582,71.036,23.788,61.468,35.966,56.2,51.96,57.3,67.475c.134,1.879.372,3.752.687,5.609A2.418,2.418,0,0,0,60.94,74.76a2.456,2.456,0,0,0,1.676-2.952C60.241,57.778,64.113,42.73,71.8,30.9A57.973,57.973,0,0,1,102.615,7.8c7.871-2.555,15.875-3.182,24.105-2.9a73.812,73.812,0,0,1,19.764,2.964A47.432,47.432,0,0,1,160.9,15.474,57.987,57.987,0,0,1,173.975,28.8a69.906,69.906,0,0,1,9.152,20.929c2.052,7.669,3.306,15.8,2.529,23.74a26.319,26.319,0,0,1-1.022,5.232c-.916,2.958,3.716,4.222,4.629,1.276Z"/><path class="cls-3" d="M111.067,139.848c3.582,3.294,9.086,4.169,13.76,4.166s10.179-.871,13.763-4.166c2.28-2.1-1.122-5.482-3.394-3.394-.094.087-.19.172-.289.254-.322.267.329-.223.065-.054-.281.18-.551.372-.841.539a10.057,10.057,0,0,1-1.931.886,24.579,24.579,0,0,1-14.618.046,9.868,9.868,0,0,1-2.059-.932c-.265-.154-.516-.325-.772-.491-.473-.307.4.323,0,.006-.1-.08-.195-.167-.289-.254-2.271-2.088-5.674,1.3-3.394,3.394Z"/><path class="cls-3" d="M122.045,111.859c.7,2.655,1.253,5.343,1.79,8.034.063.315.122.63.187.944.017.081.064.429.017.044-.051-.415,0,.038,0,.13s0,.2,0,.3c.015.487.067-.405.01-.151q-.057.183.048-.1a.959.959,0,0,1,.283-.446c.132-.133.4-.316.079-.109.352-.225.093-.032-.063.015a2.123,2.123,0,0,0-.424.1c.1-.069.494-.021.163-.04-.121-.006-.245,0-.366-.007-.09,0-.435-.048-.022.006s.038,0-.06-.017c-.183-.033-.365-.069-.549-.094a2.649,2.649,0,0,0-1.849.242,2.443,2.443,0,0,0-1.1,1.434c-.257,1.128.346,2.77,1.676,2.953a7.881,7.881,0,0,0,4.168-.078,3.992,3.992,0,0,0,2.58-2.393,4.518,4.518,0,0,0,.185-2.062c-.207-1.678-.608-3.343-.957-5s-.734-3.331-1.168-4.981a2.4,2.4,0,1,0-4.628,1.276Z"/><path class="cls-3" d="M147.6,161.813c16.633-5.534,26.282-22.939,29.914-39.1a93.98,93.98,0,0,0,2.17-20.375c.006-3.089-4.794-3.094-4.8,0-.039,18.013-4.948,38.212-19.595,49.909a35.967,35.967,0,0,1-4.413,2.921q-1.173.651-2.4,1.2c.039-.018-.649.278-.342.15.184-.076-.467.184-.553.216-.416.16-.836.307-1.259.448-2.917.97-1.667,5.607,1.276,4.629Z"/><path class="cls-3" d="M69.263,106.027c.392,19.291,8.076,40.218,24.538,51.421a43.488,43.488,0,0,0,16.326,6.687,2.466,2.466,0,0,0,2.953-1.677,2.423,2.423,0,0,0-1.677-2.952A40.652,40.652,0,0,1,87.6,145.357c-5.889-7.044-9.617-15.787-11.694-24.67a69.754,69.754,0,0,1-1.839-14.66c-.063-3.085-4.863-3.095-4.8,0Z"/><path class="cls-3" d="M70.036,80.521A9.481,9.481,0,0,0,59.32,78.845c-3.815,1.853-5.111,5.786-5.4,9.736C53.335,96.6,55.4,105.55,60.4,111.962c2.8,3.6,7.013,6.151,11.677,6.023,3.082-.084,3.1-4.885,0-4.8-8.1.222-11.782-9.963-12.962-16.441a31.677,31.677,0,0,1-.482-6.126,13.042,13.042,0,0,1,.807-5.42,4.544,4.544,0,0,1,7.2-1.283c2.258,2.1,5.66-1.283,3.394-3.394Z"/><path class="cls-3" d="M182.713,83.915a4.543,4.543,0,0,1,7.2,1.283,13.14,13.14,0,0,1,.807,5.42,31.749,31.749,0,0,1-.481,6.126c-1.18,6.477-4.857,16.663-12.962,16.441-3.09-.084-3.088,4.716,0,4.8,8.758.24,14.015-7.978,16.423-15.354a37.212,37.212,0,0,0,1.811-12.466c-.109-4.045-.816-8.025-4.26-10.566a9.385,9.385,0,0,0-11.934.922c-2.266,2.11,1.134,5.5,3.394,3.394Z"/><path class="cls-3" d="M137.005,48.524a65.326,65.326,0,0,0,6.223,9.715A110.094,110.094,0,0,0,151.8,68.472c4.817,5,11.183,8.667,17.221,11.973q5.094,2.787,10.388,5.186a2.474,2.474,0,0,0,3.284-.861,2.418,2.418,0,0,0-.861-3.283,137.621,137.621,0,0,1-18.2-9.817,52.275,52.275,0,0,1-7.5-5.67,79.522,79.522,0,0,1-8.039-9.24A66.651,66.651,0,0,1,141.15,46.1c-1.4-2.757-5.537-.33-4.145,2.423Z"/><path class="cls-3" d="M138.125,48.9c-.4.586.3-.314-.238.31-.269.309-.541.614-.823.912-.671.71-1.373,1.391-2.084,2.06-1.893,1.78-3.863,3.477-5.86,5.139a143.6,143.6,0,0,1-13.247,9.97c-4.135,2.7-8.3,4.153-13.055,5.632-6.3,1.958-12.715,3.534-19.144,5-5.61,1.277-11.25,2.414-16.876,3.617-3.019.646-1.741,5.274,1.276,4.628C79.605,83.7,91.189,81.422,102.5,78.04c5.033-1.505,10.223-3.115,14.711-5.908a135.178,135.178,0,0,0,13.656-10.059c2.412-1.962,4.79-3.972,7.071-6.087a28.944,28.944,0,0,0,4.334-4.661c1.753-2.553-2.405-4.956-4.145-2.423Z"/><path class="cls-3" d="M104.547,46.605C100.2,55.47,95.574,64.513,87.114,70.138c-2.561,1.7-.16,5.861,2.422,4.144,9.212-6.124,14.405-15.571,19.156-25.254a2.462,2.462,0,0,0-.861-3.284,2.424,2.424,0,0,0-3.284.861Z"/><path class="cls-4" d="M247.394,303.793c-2.471-10.7-11.128-36.465-14.683-48.909-4.24-14.84-12-43.111-20.233-49.111-2.339-1.867-4.97-2.806-7.6-4.236-14.011-7.62-26.191-13.984-42.045-20.594-3.448-2.884-6.556-4.991-7.911-5.147a221.093,221.093,0,0,1-6.678,29.415,645.074,645.074,0,0,1-22.713,63.438l-.4-.872c-5.881-12.7-16.807-38.19-24.78-61.033-4.949-14.181-7.127-23.9-8.982-30.143-1.76.085-6.774,4.039-11.545,8.694-11.305,5.125-21.114,10.3-32.036,16.242-2.247,1.222-4.814,2.32-6.973,3.78-8.49,4.821-16.577,34.3-20.938,49.567-3.556,12.444-12.213,38.208-14.684,48.909-2.9,12.551-5.637,21.045,3.3,30.969,4.252,4.725,10.14,8.391,15.229,11.189,3.821,2.1,11.441,6.2,19.626,10.458,3.372,1.753,6.839,3.533,10.176,5.209-1.965,14.56-3.946,28.727-4.778,36.264,16.481,2.14,38.52,3.229,53.748,1.868a15.183,15.183,0,0,0,6.124-1.471,10.378,10.378,0,0,0,4.637-4.917c4.953-12.184,10.573-29.145,13.462-39.367l.335-.859c1.7,12.255,3.571,23.894,5.488,32.537,1.026,4.624,1.986,11.013,4.644,13.547,4.445,2.667,14.149,3.338,20.223,3.333,15.724-.012,34.475-2,46.467-5.035-.855-7.627-2.807-21.59-4.74-35.929,11.423-5.742,24.357-12.676,29.741-15.638,5.089-2.8,10.977-6.464,15.23-11.189C253.032,324.838,250.293,316.344,247.394,303.793ZM58.5,317.591c-5.152-3.019-9.868-5.949-12.92-7.951.037-.264.057-.411.057-.411.478-3.441,3-9.8,6.254-16.875.738-1.6,1.513-3.245,2.311-4.9,1.43,9.18,2.861,18.476,4.212,27.607A16.471,16.471,0,0,1,58.5,317.591Zm135.644-.029a16.142,16.142,0,0,1,.084-2.5c1.346-9.1,2.771-18.358,4.2-27.5.839,1.738,1.653,3.463,2.424,5.144,3.179,6.938,5.624,13.141,6.095,16.525,0,0,.02.147.057.411C203.963,311.634,199.272,314.549,194.147,317.562Z"/><path class="cls-1" d="M126.71,202.428c-1.555.095-3.078.143-4.555.139A95.572,95.572,0,0,1,97.8,199.1q1.141,3.588,2.552,7.649c7.972,22.843,18.9,48.335,24.779,61.033l.4.869a644.011,644.011,0,0,0,22.713-63.435q1.105-3.71,1.976-7.02l-.617.175A111.325,111.325,0,0,1,126.71,202.428Z"/><path class="cls-5" d="M64.379,367.256H186.13"/><path class="cls-3" d="M125.77,274.023c5.559-12.313,10.312-25.005,14.818-37.734,5.2-14.7,10.278-29.581,13.758-44.793,1.141-4.991,2.024-10.019,2.891-15.062l-2.952,1.676a1.3,1.3,0,0,1,.377.08c.071.035.693.267.285.091s.231.124.308.164c.226.118.448.244.668.373a32.842,32.842,0,0,1,3.157,2.167c.36.273.854.666,1.385,1.1q.994.813,1.963,1.658,1.985,1.728,3.868,3.567c1.2,1.172,2.368,2.376,3.487,3.624a37.441,37.441,0,0,1,2.593,3.159c.339.474.665.959.963,1.459.133.223.261.448.381.677a3.272,3.272,0,0,0,.163.324q.075.155.144.312l.094-2.012c-.088.3-.113.142.1-.107-.133.152-.259.309-.391.461-.433.493-.888.968-1.343,1.441-2.625,2.727-5.353,5.376-8.167,7.909a2.414,2.414,0,0,0-.375,2.908c2.415,3.5,5.153,6.568,7.519,9.876.036.05.108.245.16.268-.249-.109-.221-1.346-.165-1.625,0-.016.377-.732.125-.322-.179.292-.329.609-.5.907-.661,1.169-1.347,2.324-2.031,3.479-5.71,9.64-11.556,19.2-17.376,28.774q-5.965,9.813-11.941,19.621c-1.61,2.646,2.539,5.06,4.145,2.423q10.666-17.52,21.306-35.058c2.613-4.322,5.226-8.643,7.8-12.987.736-1.24,1.473-2.481,2.185-3.735a5.386,5.386,0,0,0,1-2.493,4.68,4.68,0,0,0-1.223-2.611c-.805-1.1-1.65-2.175-2.489-3.25-1.6-2.055-3-3.7-4.376-5.69l-.375,2.909c2.716-2.445,5.346-5,7.891-7.625a17.615,17.615,0,0,0,2.578-2.927c.884-1.471.079-2.955-.7-4.269a42.929,42.929,0,0,0-6.3-7.722,85.347,85.347,0,0,0-8.273-7.481,45.622,45.622,0,0,0-4.161-3.01,8.86,8.86,0,0,0-3.186-1.436c-1.182-.167-2.711.273-2.953,1.677-.714,4.158-1.419,8.312-2.308,12.439-1.591,7.384-3.626,14.65-5.853,21.865q-6.739,21.836-15,43.178c-2.462,6.378-5.011,12.728-7.825,18.96a2.475,2.475,0,0,0,.861,3.284,2.42,2.42,0,0,0,3.284-.861Z"/><path class="cls-3" d="M51.14,397.882c.993-8.966,2.215-17.389,3.415-26.215,1.511-11.117,3.035-22.235,4.386-33.374.545-4.494,1.068-8.993,1.482-13.5a70.729,70.729,0,0,0,.48-8.593,67.316,67.316,0,0,0-1.07-7.793Q58.869,302,57.88,295.592q-1.974-12.795-3.991-25.581c-2.361-15.063-4.753-30.125-6.8-45.234q-.3-2.2-.582-4.409a2.479,2.479,0,0,0-2.4-2.4,2.413,2.413,0,0,0-2.4,2.4c1.882,14.625,4.164,29.2,6.439,43.766q3.988,25.547,7.893,51.107c.142.929.014-.176.013.063,0,.089.02.18.024.269.01.208.025.417.032.625.016.528.009,1.057-.005,1.585-.036,1.433-.133,2.864-.244,4.292-.322,4.165-.784,8.32-1.267,12.469-1.257,10.8-2.722,21.564-4.175,32.273-1.3,9.552-2.656,19.1-3.8,28.671q-.142,1.2-.276,2.394a2.415,2.415,0,0,0,2.4,2.4,2.457,2.457,0,0,0,2.4-2.4Z"/><path class="cls-3" d="M189.024,247.6h-27.2a2.434,2.434,0,0,0-2.4,2.4c0,3.183.042,6.366.044,9.549a2.435,2.435,0,0,0,2.4,2.4c9.053,0,18.106.043,27.159.044a2.435,2.435,0,0,0,2.4-2.4c0-3.183-.183-6.414,0-9.593.177-3.086-4.624-3.076-4.8,0-.183,3.179,0,6.41,0,9.593l2.4-2.4c-9.053,0-18.106-.043-27.159-.044l2.4,2.4c0-3.183-.042-6.366-.044-9.549l-2.4,2.4h27.2C192.112,252.4,192.117,247.6,189.024,247.6Z"/><path class="cls-3" d="M206.308,397.882c-1-8.987-2.289-17.943-3.506-26.9-1.482-10.9-2.966-21.724-4.295-32.688-.545-4.494-1.068-8.993-1.482-13.5a70.729,70.729,0,0,1-.48-8.593c.007-.209.021-.417.032-.625,0-.077.019-.155.02-.233,0-.285-.127.848.017-.1.328-2.162.644-4.327.97-6.489q.966-6.411,1.957-12.817,1.972-12.779,3.988-25.55c2.349-14.992,4.727-29.984,6.757-45.023q.337-2.5.66-4.994a2.413,2.413,0,0,0-2.4-2.4,2.461,2.461,0,0,0-2.4,2.4c-1.866,14.5-4.15,28.937-6.406,43.376-2.641,16.908-5.438,33.8-7.832,50.748a35.089,35.089,0,0,0,.085,7.583c.323,4.165.785,8.32,1.268,12.469,1.28,11,2.776,21.975,4.265,32.948,1.295,9.542,2.569,18.447,3.706,28q.143,1.2.276,2.394a2.472,2.472,0,0,0,2.4,2.4,2.415,2.415,0,0,0,2.4-2.4Z"/><path class="cls-3" d="M196.194,288.438c1.97,4.075,3.9,8.182,5.582,12.383a40.691,40.691,0,0,1,2.855,9.046,2.416,2.416,0,0,0,2.953,1.676,2.461,2.461,0,0,0,1.676-2.952,41.8,41.8,0,0,0-2.99-9.38c-1.811-4.47-3.833-8.854-5.932-13.2a2.421,2.421,0,0,0-3.283-.861,2.452,2.452,0,0,0-.861,3.284Z"/><path class="cls-3" d="M52.247,286.015c-2.1,4.342-4.12,8.726-5.931,13.2a41.8,41.8,0,0,0-2.99,9.38A2.477,2.477,0,0,0,45,311.543a2.416,2.416,0,0,0,2.952-1.676,40.8,40.8,0,0,1,2.855-9.046c1.688-4.2,3.613-8.308,5.583-12.383a2.464,2.464,0,0,0-.861-3.284,2.422,2.422,0,0,0-3.284.861Z"/><path class="cls-3" d="M97.36,201.475a94.859,94.859,0,0,0,27.054,3.459,107.926,107.926,0,0,0,25.827-4.254c2.968-.837,1.707-5.47-1.276-4.628a102.445,102.445,0,0,1-24.551,4.082,90.055,90.055,0,0,1-25.778-3.288c-2.989-.793-4.264,3.836-1.276,4.629Z"/><path class="cls-3" d="M97.719,160.108a88.335,88.335,0,0,1-1.481,13.625,5.67,5.67,0,0,1-1.365,3.337,9.293,9.293,0,0,1-2.96,1.625c-4.107,1.828-8.161,3.783-12.244,5.663q-1.71.788-3.424,1.566c-.407.184-.816.364-1.223.547-.722.325.485-.167-.119.049a2.461,2.461,0,0,0-1.676,2.952,2.42,2.42,0,0,0,2.952,1.676c1.692-.6,3.325-1.457,4.955-2.206q3.935-1.806,7.859-3.632c1.769-.82,3.555-1.612,5.313-2.457a1.888,1.888,0,0,0,.178-.079c.118-.075-1.247.514-.135.074.315-.125.635-.258.942-.4a10.475,10.475,0,0,0,2.765-1.789,9.034,9.034,0,0,0,2.564-4.478,59.836,59.836,0,0,0,1.049-6.229,79.449,79.449,0,0,0,.85-9.849c.062-3.09-4.738-3.09-4.8,0Z"/><path class="cls-3" d="M144.715,160.108a106.156,106.156,0,0,0,1.542,14.224c.549,3.53,2.13,6.5,5.511,8.042.484.221,1.047.359,1.506.621-.8-.454-.639-.284-.412-.171s.485.224.726.337q1.28.6,2.556,1.2,3.572,1.686,7.14,3.377c1.669.79,3.324,1.639,5.024,2.363a2.481,2.481,0,0,0,3.284-.861,2.417,2.417,0,0,0-.861-3.283c-3.588-1.529-7.078-3.336-10.6-5-1.593-.754-3.179-1.529-4.787-2.252a10.962,10.962,0,0,1-2.77-1.437,4.417,4.417,0,0,1-1.449-2.875,76.1,76.1,0,0,1-1.607-14.286c-.062-3.085-4.862-3.095-4.8,0Z"/><path class="cls-3" d="M89.911,178.33a442.039,442.039,0,0,0-40.788,19.752c-3.725,2.015-7.711,3.71-11.07,6.316a2.413,2.413,0,0,0,0,3.394,2.462,2.462,0,0,0,3.394,0,34.443,34.443,0,0,1,5.7-3.225c2.072-1.046,4.1-2.182,6.14-3.283,4.033-2.172,8.081-4.316,12.161-6.4,8.426-4.3,17-8.3,25.736-11.929a2.478,2.478,0,0,0,1.676-2.952,2.414,2.414,0,0,0-2.952-1.676Z"/><path class="cls-3" d="M161.477,182.958c8.606,3.574,17.054,7.51,25.358,11.736,3.948,2.009,7.866,4.078,11.768,6.175,2.081,1.119,4.137,2.294,6.247,3.355a35.372,35.372,0,0,1,5.931,3.246,2.48,2.48,0,0,0,3.394,0,2.415,2.415,0,0,0,0-3.394c-3-2.325-6.53-3.77-9.853-5.572q-4.776-2.588-9.581-5.12c-6.417-3.366-12.9-6.6-19.49-9.616q-6.2-2.838-12.5-5.438a2.415,2.415,0,0,0-2.952,1.676,2.461,2.461,0,0,0,1.676,2.952Z"/><path class="cls-3" d="M153.588,188.482c2.733-.5,5.3-1.821,7.958-2.6a20.247,20.247,0,0,1,2.061-.507c.115-.021.795-.1.213-.043.143-.014.285-.031.429-.042.315-.023.624-.015.939-.009.175,0,.505.135-.039-.014.113.031.231.044.344.075.074.02.146.042.218.067q.3.112-.172-.075a1.714,1.714,0,0,1,.281.16c.324.145-.361-.32-.034-.008s-.127-.339-.007-.018a3.132,3.132,0,0,0,.165.307c-.276-.509-.044-.042,0,.128a2,2,0,1,0,3.857-1.063,4.54,4.54,0,0,0-3.356-3.383,10.6,10.6,0,0,0-4.993.3,50.317,50.317,0,0,0-4.885,1.6,25.206,25.206,0,0,1-4.041,1.267,2.017,2.017,0,0,0-1.4,2.46,2.044,2.044,0,0,0,2.46,1.4Z"/><path class="cls-4" d="M114.489,269.7c.433.537-42.005-52.483-42.14-53.106-.15-.694,5.981-7.709,7.761-9.773-3.227-2.894-10.356-8.76-10.2-9.164,2.368-6.149,18.041-20.889,21.457-21.055,1.855,6.241,4.033,15.962,8.983,30.143,7.972,22.843,18.9,48.335,24.779,61.033"/><path class="cls-3" d="M112.792,271.4l0,0a2.417,2.417,0,0,0,3.394,0,2.462,2.462,0,0,0,0-3.394c-5.627-7.224-11.439-14.309-17.149-21.468-7.758-9.726-15.563-19.421-23.2-29.248l-.386-.5c.547.7.11.143-.02-.028-.191-.249-.384-.5-.572-.75a5.131,5.131,0,0,0-.326-.445c-.692-.741.5,1.485-.017,1.906a11.193,11.193,0,0,0,1.2-1.735c-.269.349.255-.319.242-.3q.255-.318.511-.635.639-.787,1.291-1.563c1.329-1.589,2.686-3.154,4.039-4.722a2.438,2.438,0,0,0,0-3.394c-2.563-2.291-5.217-4.48-7.791-6.76-.5-.442-1-.885-1.48-1.345-.164-.156-.322-.32-.486-.476-.408-.386-.077-.083-.032.014.119.256.441,1.64.149,1.872a1.641,1.641,0,0,0,.146-.307c.116-.214.224-.433.344-.646.308-.548.65-1.077,1.006-1.594a33.384,33.384,0,0,1,2.429-3.121c1.1-1.287,2.242-2.533,3.417-3.749a89.1,89.1,0,0,1,7.268-6.77,29.145,29.145,0,0,1,3.138-2.344c.463-.3.942-.558,1.424-.824.56-.308-.413.162.117-.044.249-.1.822-.1-.089-.028l-2.314-1.762c1.351,4.567,2.5,9.193,3.805,13.773,1.971,6.912,4.21,13.735,6.64,20.5,4.922,13.707,10.368,27.227,16.092,40.618,2.416,5.651,4.886,11.281,7.466,16.86a2.421,2.421,0,0,0,3.284.861,2.456,2.456,0,0,0,.861-3.284c-5.039-10.892-9.717-21.956-14.194-33.089-5.5-13.67-10.772-27.48-14.911-41.63-1.543-5.275-2.855-10.615-4.415-15.884a2.431,2.431,0,0,0-2.314-1.762c-2.515.2-4.715,2.068-6.623,3.554a82.387,82.387,0,0,0-7.9,7.113,66.88,66.88,0,0,0-7.065,8.213,15.207,15.207,0,0,0-2.068,3.647c-.552,1.577.354,2.662,1.428,3.684,2.972,2.828,6.213,5.371,9.271,8.1v-3.394a109.179,109.179,0,0,0-7.578,9.2c-.742,1.079-1.242,2.334-.5,3.574a10.2,10.2,0,0,0,.67.907c2.846,3.743,5.79,7.414,8.71,11.1q13.128,16.57,26.347,33.069c2.244,2.808,4.526,5.589,6.735,8.425l3.394-3.394,0,0a2.415,2.415,0,0,0-3.394,0,2.456,2.456,0,0,0,0,3.394Z"/><path class="cls-3" d="M121.625,271.6c-1.549,3.364-3.3,6.846-3.894,10.539a26.382,26.382,0,0,0-.266,5.869c.186,2.949.471,5.894.743,8.836q1.605,17.355,3.678,34.666c1.623,13.711,3.394,27.42,5.7,41.036,1,5.918,2.193,11.793,3.458,17.661.766,3.551,1.61,7.824,4.25,10.523,1.177,1.2,3.146,1.78,4.718,2.25a38.021,38.021,0,0,0,5.478,1.146c8.355,1.208,16.861.91,25.261.4a217.037,217.037,0,0,0,26.994-3.22q2.813-.532,5.6-1.19c3-.715,1.732-5.344-1.276-4.629a171.761,171.761,0,0,1-24.509,3.726,172.753,172.753,0,0,1-25.528.786,47.335,47.335,0,0,1-10.744-1.642,17.92,17.92,0,0,1-1.832-.647,5.031,5.031,0,0,1-.844-.428c.224.16-.085-.12-.1-.142.089.1-.181-.256-.217-.309a15.431,15.431,0,0,1-1.83-4.591c-1.6-5.887-2.669-11.994-3.732-18-2.272-12.833-3.987-25.766-5.559-38.7q-2.153-17.715-3.858-35.482c-.332-3.464-.658-6.929-.927-10.4-.062-.805-.13-1.611-.16-2.417a18.493,18.493,0,0,1,1.2-7.742c.679-1.867,1.516-3.672,2.347-5.475a2.47,2.47,0,0,0-.861-3.284,2.42,2.42,0,0,0-3.284.861Z"/><path class="cls-3" d="M124.4,353.357A385.852,385.852,0,0,1,111.349,391.7a8.636,8.636,0,0,1-6.965,5.436,76.015,76.015,0,0,1-9.763.69c-7.246.256-14.506.119-21.746-.237-8.067-.4-16.125-1.072-24.135-2.1a2.411,2.411,0,0,0-2.4,2.4,2.461,2.461,0,0,0,2.4,2.4,284.559,284.559,0,0,0,44.912,2.374c3.367-.1,6.756-.247,10.1-.632,3.925-.452,7.515-1.829,10.048-5a18.954,18.954,0,0,0,2.59-5.1q.972-2.454,1.9-4.926,1.958-5.211,3.77-10.476c2.5-7.235,4.877-14.525,6.964-21.892.844-2.977-3.786-4.248-4.628-1.276Z"/><path class="cls-3" d="M132.72,290.757c0-.221.017-.439.034-.659.033-.446-.117.64-.026.2.023-.108.041-.216.067-.323.05-.215.12-.421.189-.63.138-.415-.275.558-.072.171.068-.13.132-.26.207-.386.057-.1.12-.184.18-.276.239-.364-.406.452-.1.139.157-.162.335-.308.488-.47-.434.458-.311.232-.107.1.067-.044.136-.085.2-.125a3.087,3.087,0,0,0,.329-.169q-.572.233-.218.1c.083-.031.166-.059.251-.085a6.28,6.28,0,0,0,.825-.188l-.339.046c.1-.011.208-.019.312-.026.163-.01.328-.018.492-.015s.311.02.467.03c.536.032-.561-.127-.056,0,.3.073.617.214.913.26-.522-.081-.366-.166-.111-.034.109.056.216.117.32.183.191.12.365.364-.1-.1.054.054.123.1.18.151.174.157.313.341.478.5-.466-.461-.229-.3-.1-.113q.126.195.233.4c.095.185.167.527-.047-.149.036.112.086.221.123.332a6,6,0,0,1,.186.7c.025.119.036.243.064.361-.169-.716-.046-.357-.029-.146a6.781,6.781,0,0,1,.022.806c-.011.283-.184.688.034-.088-.052.184-.068.381-.117.567a5.432,5.432,0,0,0-.187.571c.073-.518.21-.471.076-.2-.061.125-.128.248-.2.367-.055.092-.116.178-.173.268-.232.361.405-.464.113-.144-.151.165-.305.319-.466.474-.318.308.5-.337.127-.091-.1.065-.195.133-.3.194-.069.041-.139.081-.21.119-.557.3.4-.117,0,.014a7.22,7.22,0,0,1-.779.224l-.139.028q-.385.063.2-.022a1.841,1.841,0,0,0-.463.036,4.23,4.23,0,0,0-.93-.022l.353.051c-.091-.014-.182-.03-.272-.049a4.734,4.734,0,0,1-.511-.133c-.241-.078-.408-.271.108.063-.131-.085-.287-.14-.421-.221-.1-.058-.19-.138-.289-.19.568.3.309.249.136.092-.082-.074-.161-.151-.236-.231-.166-.176-.347-.566.027.067-.128-.216-.278-.414-.394-.638-.049-.094-.088-.194-.138-.287.372.7.123.3.051.083a6.463,6.463,0,0,1-.193-.7c-.021-.1-.035-.2-.057-.3-.089-.393.062.723.021.152-.015-.216-.03-.431-.032-.647a2.4,2.4,0,0,0-4.8,0c.019,2.691,1.23,5.609,3.74,6.879,2.935,1.486,7.108,1.006,9.291-1.6a8.005,8.005,0,0,0,1.332-7.911,7.14,7.14,0,0,0-3-3.737,8.26,8.26,0,0,0-5.444-.883,6.913,6.913,0,0,0-4.624,2.839,7.668,7.668,0,0,0-1.3,4.413,2.4,2.4,0,0,0,4.8,0Z"/><g id="layer-2" data-name="layer"><path class="cls-6" d="M144.77,181.724a31.935,31.935,0,0,1-11.566,4.108c-11.129,1.805-24.791,1.167-30.222.889-7.242-.37-10.19-4.114-9.6-8.114a67.412,67.412,0,0,0,4.578-12.562,3.085,3.085,0,0,1,3.285-2.3c10.264,1.041,20.049,3.034,30.656,1.384,5.2-.809,11.052-3.615,15.428-2.947,2.85.436,2.972,3.531,3.979,8.429C152.177,174.817,149.472,178.814,144.77,181.724Z"/><path class="cls-3" d="M143.559,179.652c-7.092,4.313-15.861,4.718-23.947,4.945-3.753.1-7.509.075-11.261-.046-2.922-.094-6.085.042-8.895-.845a7.707,7.707,0,0,1-1.94-.921,3.623,3.623,0,0,1-.665-.547c-.091-.089-.18-.18-.266-.274-.514-.562.082.153-.16-.191a3.041,3.041,0,0,1-.651-1.46c-.02-.074-.084-.468-.028-.05a3.479,3.479,0,0,1-.032-.467,8.754,8.754,0,0,1,.07-1.189l-.327,1.211a73.024,73.024,0,0,0,3.392-8.312c.483-1.44.948-2.9,1.31-4.375.247-1,.548-1.037,1.561-.941,6.242.593,12.431,1.648,18.7,1.9a57.358,57.358,0,0,0,18.285-2.163c2.449-.7,5.009-1.549,7.587-1.448a2.981,2.981,0,0,1,1.09.186c-.276-.092.01.1-.045.022-.179-.241.426.782.263.418a9.478,9.478,0,0,1,.5,1.661c.531,2.221,1.391,4.843.7,7.1-.784,2.545-3.075,4.418-5.239,5.786-2.6,1.646-.2,5.8,2.423,4.144,4.265-2.7,8.408-7.077,7.836-12.527a31.877,31.877,0,0,0-1.492-7.188,6.027,6.027,0,0,0-4-4.142c-2.427-.675-5.238-.093-7.62.479-2.761.663-5.45,1.6-8.234,2.173-5.991,1.223-12.319.847-18.359.235-3.038-.308-6.066-.706-9.1-1.066-2.854-.338-5.975-1.055-8.14,1.388a9.62,9.62,0,0,0-1.713,4.041q-.621,2.178-1.385,4.314c-.451,1.258-.933,2.507-1.47,3.731a11.328,11.328,0,0,0-1.393,4.089c-.171,4.234,2.883,7.391,6.637,8.794,3.874,1.449,8.536,1.188,12.625,1.285a148.982,148.982,0,0,0,17.652-.491c6.339-.6,12.635-1.759,18.152-5.115C148.617,182.194,146.208,178.041,143.559,179.652Z"/><path class="cls-3" d="M101.223,180.156a34.653,34.653,0,0,0,6.8-1.22,29.169,29.169,0,0,0,6.142-2.7,2.4,2.4,0,0,0-2.423-4.145A28.666,28.666,0,0,1,109,173.5c-.113.05-.226.1-.34.148q.435-.183.062-.03c-.228.086-.455.178-.684.262q-.644.234-1.3.433a26.651,26.651,0,0,1-2.8.678c-.508.095-1.021.186-1.534.248.629-.076-.251.026-.362.039-.274.03-.549.057-.825.083a2.454,2.454,0,0,0-2.4,2.4,2.427,2.427,0,0,0,2.4,2.4Z"/><path class="cls-6" d="M154.189,172.293c5.609-2.812,13.9-8.088,19.244-7.313,5.292,2.052,8.957,14.129,6.473,18.407-.489.76-2.639,1.9-3.712,2.309l-2.127.811.252.107c5.767,2.432,9.613,6.2,9.138,9.159-.155,1.262-6.106,11.281-8.919,11.937-3.122.211-10.889-9.333-16.889-10.667,0,0-.384-.085-.9-.2-2.228,3.812-7.325,19.1-9.544,24.869-.473,1.232-15.619-5.93-17.111-8.889.659-3.292,3.485-7.83,6.885-12.258-9.026,4.356-10.681-2.816-12.906-8.715s-3.928-9.507,1.285-12.786c4.011-2.523,14.283-3.584,18.277-3.594.148-1.218,1.831-1.732,4.028-2.38,2.043-.6,4.6-1.077,5.829-.433"/><path class="cls-3" d="M155.2,174.02c3.2-1.613,6.292-3.422,9.546-4.921a29.626,29.626,0,0,1,4.665-1.748,12.687,12.687,0,0,1,2.006-.405,8.72,8.72,0,0,1,1.035-.04c.19,0,.379.019.568.028.409.02-.369-.19-.105,0,3.834,2.7,5.934,8.334,5.78,13.1a5.385,5.385,0,0,1-.231,1.64c-.153.543-.107.541-.475.819a17.541,17.541,0,0,1-4.453,2.093,2.021,2.021,0,0,0,0,3.857,20.819,20.819,0,0,1,5.537,3.288c1.032.9,2.31,2.119,2.447,3.494-.022-.216.1.738-.009.118.013.071-.2.491-.046.177s-.156.331-.2.424c-.139.286-.289.568-.44.848-.686,1.269-1.444,2.5-2.24,3.7a31.6,31.6,0,0,1-2.818,3.752,12.116,12.116,0,0,1-1.269,1.254c-.318.264-.106.076-.038.029a1.8,1.8,0,0,0-.349.221c-.316.407.391-.184.167-.038.219-.142.345.111.023-.033-.05-.023-.379-.131-.159-.046.082.032-.489-.256-.632-.339a17.757,17.757,0,0,1-1.807-1.232c-1.324-1-2.581-2.087-3.869-3.132-3.21-2.6-6.453-5.087-10.551-6.011a2.055,2.055,0,0,0-2.259.919,57.569,57.569,0,0,0-3.574,8.391c-1.409,3.73-2.739,7.489-4.083,11.243-.567,1.585-1.134,3.171-1.723,4.747a2.841,2.841,0,0,0-.3.784c-.03-.6.7-.912,1.153-1.093.3-.12.564-.071.291-.054-.35.021.49.149-.02-.007-.22-.067-.448-.109-.669-.174a40.94,40.94,0,0,1-7.616-3.356,48.947,48.947,0,0,1-4.573-2.692,11.366,11.366,0,0,1-1.341-1c-.2-.172-.374-.363-.565-.54-.372-.344.092.244-.185-.266l.2,1.541c.944-4.364,4.032-8.31,6.683-11.78a2.006,2.006,0,0,0-.313-2.424,2.082,2.082,0,0,0-2.423-.313,8.413,8.413,0,0,1-4.457,1.031,3.73,3.73,0,0,1-2.4-1.554c-1.73-2.255-2.458-5.284-3.451-7.9-.877-2.309-2.723-5.868-1.132-8.045,1.832-2.506,5.689-3.192,8.51-3.756a56.168,56.168,0,0,1,10.6-1.144A2.026,2.026,0,0,0,145.562,176c.1-.5,0-.02-.158.078a5.774,5.774,0,0,1,.589-.345,15.693,15.693,0,0,1,2.4-.772c1.015-.288,3.048-1.038,4.094-.579a2.064,2.064,0,0,0,2.736-.717,2.016,2.016,0,0,0-.718-2.737c-2.416-1.061-5.136-.427-7.572.291-2.009.593-4.731,1.339-5.223,3.718l1.929-1.469a62.293,62.293,0,0,0-11.5,1.254c-3.756.738-7.987,1.831-10.526,4.926-2.811,3.428-1.412,7.594-.011,11.3,1.269,3.36,2.237,7.127,4.509,9.977,3.106,3.894,7.8,3.277,11.878,1.362l-2.737-2.736a49.86,49.86,0,0,0-5.671,8.827,16.11,16.11,0,0,0-1.415,3.908,3.019,3.019,0,0,0,1.111,2.722c2.6,2.7,6.487,4.486,9.817,6.076a48.974,48.974,0,0,0,5.308,2.236c1.145.389,2.6.865,3.733.2.882-.516,1.11-1.565,1.442-2.458q.535-1.44,1.053-2.886c.849-2.359,1.687-4.723,2.538-7.082,1.6-4.432,2.98-9.2,5.308-13.248l-2.258.919c3.831.864,6.81,3.358,9.791,5.8,1.537,1.262,3.059,2.57,4.711,3.681,1.219.821,2.822,1.743,4.35,1.384a7.483,7.483,0,0,0,3.442-2.48,37.517,37.517,0,0,0,3.368-4.416,46.216,46.216,0,0,0,2.588-4.3,6.422,6.422,0,0,0,1.01-3.538c-.418-5.289-6.619-8.532-10.879-10.329v3.857c3.146-1.2,6.945-2.341,7.8-6.017a18.214,18.214,0,0,0-.886-9.6c-1.015-3.049-2.583-6.29-5.133-8.352a6.3,6.3,0,0,0-4.516-1.549,18.982,18.982,0,0,0-5.708,1.288c-4.533,1.682-8.675,4.191-12.977,6.363-2.3,1.16-.276,4.612,2.019,3.453Z"/><path class="cls-3" d="M143.205,173.073a66.919,66.919,0,0,0-10.043,1.054c-3.267.572-6.88,1.314-9.632,3.274a8.549,8.549,0,0,0-3.746,9.172,32.2,32.2,0,0,0,1.7,5.187c.644,1.7,1.227,3.425,1.924,5.1,1.657,3.986,4.322,7.571,9.075,7.427,3.082-.093,3.095-4.893,0-4.8a3.084,3.084,0,0,1-2.727-1.047,10.827,10.827,0,0,1-1.845-3.16,75.258,75.258,0,0,1-3.221-8.848,15.341,15.341,0,0,1-.343-1.576,3.221,3.221,0,0,1,.072-1.348,3.469,3.469,0,0,1,.483-.969,6.16,6.16,0,0,1,1.509-1.306c2.145-1.38,5.011-1.936,7.69-2.421a58.458,58.458,0,0,1,9.105-.943c3.085-.067,3.095-4.868,0-4.8Z"/><path class="cls-3" d="M147.024,170.774c-2.463.728-5.849,1.743-5.807,4.917a24.49,24.49,0,0,0,1.007,5.665,30.009,30.009,0,0,0,2.22,6.119A8.451,8.451,0,0,0,146,189.693a6,6,0,0,0,3.6,1.42,13.115,13.115,0,0,0,4.014-.343,15.715,15.715,0,0,0,4.266-1.461,3.9,3.9,0,0,0,2.2-2.239,5.293,5.293,0,0,0,.2-1.863,30.123,30.123,0,0,0-2.443-9.627,12.7,12.7,0,0,0-2.392-4.4c-2.142-2.093-5.9-1.141-8.433-.408A2.4,2.4,0,1,0,148.3,175.4c.53-.153,1.062-.295,1.6-.412.251-.055.5-.1.755-.148.053-.009.568-.08.3-.049-.206.023.243-.018.284-.021.228-.017.456-.026.684-.024.107,0,.214.007.322.011.475.016.044.015-.047-.011.295.085.4.185.082-.02.16.1-.627-.357-.264-.2.058.025.094.115.142.154.211.168-.368-.558-.152-.192.109.185.234.36.341.546.28.491.515,1,.748,1.518.22.483-.146-.375.013.024.055.14.113.278.169.418.135.34.264.683.389,1.026q.378,1.042.7,2.1a34.042,34.042,0,0,1,1,4.015c.027.155.051.31.077.466.078.47-.025-.277-.018-.136.014.263.055.524.065.788.007.2-.021.411-.009.611.021.337.112-.7.038-.294-.01.053-.073.17-.063.219-.049-.234.406-.748.47-.812,0,0,.682-.417.245-.214-.244.114-.475.271-.715.4-.162.085-.327.166-.492.246-.4.193.225-.082-.176.084a14.144,14.144,0,0,1-3.465.826c.376-.049-.173.008-.289.016-.248.018-.5.026-.745.022-.092,0-.687-.024-.368,0,.292.018-.29-.061-.409-.094s-.227-.083-.34-.107c.04.008.372.214.169.071s.346.4.049.076a3.582,3.582,0,0,1-.282-.306c.019-.02.3.44.176.226-.045-.079-.108-.152-.158-.229a9.3,9.3,0,0,1-.5-.864c-.092-.176-.179-.354-.263-.533s-.27-.611-.086-.169c-.339-.815-.631-1.649-.895-2.492a38.947,38.947,0,0,1-1.3-5.516c-.089-.558.033.366,0-.017-.015-.17-.03-.343-.05-.513a1.384,1.384,0,0,0-.01-.195c-.067-.227-.121.536-.009.132a2.372,2.372,0,0,1-.22.446c-.135.269-.035.06.064-.034.184-.174-.149.124-.157.127a2.605,2.605,0,0,0,.313-.183c.115-.061.234-.116.352-.171-.223.1-.18.073.024,0,.634-.219,1.273-.418,1.916-.608a2.4,2.4,0,1,0-1.276-4.628Z"/><path class="cls-3" d="M139.858,188.787a37.732,37.732,0,0,0,5.287-2.435,2.4,2.4,0,0,0,.861-3.283,2.417,2.417,0,0,0-1.434-1.1,2.515,2.515,0,0,0-1.849.242,32.65,32.65,0,0,1-3.613,1.747l.573-.242q-.547.231-1.1.445a2.7,2.7,0,0,0-1.435,1.1,2.456,2.456,0,0,0-.242,1.85,2.429,2.429,0,0,0,1.1,1.434,2.351,2.351,0,0,0,1.85.242Z"/><path class="cls-3" d="M155.4,174.366c5.524-2.788,11.168-6.825,17.478-7.044.609-.021-.412-.306-.069,0,.181.163.464.272.666.418.219.158.015.013-.023-.018.124.1.247.21.361.321.211.2.416.411.612.63a14.028,14.028,0,0,1,1.9,2.982,19.647,19.647,0,0,1,1.949,7.071,15.231,15.231,0,0,1-.014,1.911c-.035.535.051.008-.079.5-.063.24-.125.479-.194.718-.027.094-.142.455.022-.019a.98.98,0,0,1-.174.335c.357-.229-.285.121-.348.162-.329.217-.676.41-1.023.595-.194.1-.39.2-.587.3-.046.023-.583.256-.32.151a2.475,2.475,0,0,0-1.677,2.952,2.417,2.417,0,0,0,2.953,1.677,11.677,11.677,0,0,0,4.84-3.013,7.716,7.716,0,0,0,1.364-4.12,20.692,20.692,0,0,0-1.545-9.3c-1.188-3.044-2.859-6.066-5.592-7.98-3.008-2.107-7.238-.805-10.364.416-4.366,1.7-8.385,4.1-12.557,6.207-2.758,1.392-.331,5.535,2.423,4.145Z"/><path class="cls-3" d="M145.817,187.02A96.508,96.508,0,0,0,131.4,204.31a33.977,33.977,0,0,0-2.465,4.52c-.645,1.469-1.743,3.642-.918,5.2,1.039,1.967,3.443,3.3,5.274,4.409a64.516,64.516,0,0,0,7.772,3.982c1.807.781,4.176,2.072,6.223,1.777,1.69-.243,2.145-1.611,2.673-3.029.51-1.37,1-2.747,1.5-4.123,1.2-3.352,2.39-6.709,3.629-10.048a68.034,68.034,0,0,1,3.493-8.514,6.3,6.3,0,0,0-.222-5.668,20.417,20.417,0,0,1-1.957-5.248,2.419,2.419,0,0,0-2.952-1.676,2.458,2.458,0,0,0-1.677,2.952,16.781,16.781,0,0,0,1.759,5.027,4.586,4.586,0,0,1,.828,2.948l.328-1.211a57.32,57.32,0,0,0-3.615,8.475c-1.412,3.736-2.744,7.5-4.09,11.263-.569,1.588-1.136,3.177-1.727,4.757a3.58,3.58,0,0,0-.3.785c.049-.571.836-1.206,1.432-1.372s.666-.071.4-.068c-.416,0,.658.185.086.008-.219-.068-.448-.11-.669-.174-.52-.152-1.031-.338-1.537-.531-.835-.318-1.021-.4-1.622-.668q-2.217-.981-4.361-2.118a48.512,48.512,0,0,1-4.573-2.692q-.441-.3-.87-.615c-.369-.272-.045-.036.023.019-.139-.113-.279-.225-.413-.344-.2-.172-.372-.365-.565-.539-.433-.392.2.4-.122-.186l.242,1.849a17.02,17.02,0,0,1,2.3-5.346,60.592,60.592,0,0,1,4.318-6.311,105.9,105.9,0,0,1,10.188-11.388c2.223-2.153-1.173-5.545-3.394-3.394Z"/><path class="cls-3" d="M158.544,186.778a28.759,28.759,0,0,1,16.425,2.773A16.8,16.8,0,0,1,180,193.192a2.518,2.518,0,0,1,.514.66c.117.188.224.381.337.571.335.561-.072-.265.055.087.087.241.186,1.165.181.557,0,.12.007.236,0,.356-.021.6.108-.582,0-.079-.113.52.277-.506-.035.1-.134.259-.255.523-.389.781-.394.753-.82,1.488-1.26,2.214a43.662,43.662,0,0,1-3.263,4.743,16.707,16.707,0,0,1-1.626,1.759c-.148.135-.3.271-.457.393.444-.339.091-.053-.018-.017-.035.012-.34.182-.339.186-.009-.119.814-.285.747-.176.165-.267.118.271-.124-.063s.35.194-.083-.031c-.312-.162-.616-.333-.913-.52a22.619,22.619,0,0,1-2.058-1.493c-3.923-3.128-7.949-7.284-12.987-8.491-3-.719-4.284,3.908-1.276,4.629,4.446,1.065,8.357,5.343,12.031,8.164,1.494,1.147,3.263,2.527,5.233,2.584,1.949.057,3.574-1.583,4.765-2.94a43.352,43.352,0,0,0,4.093-5.624,22.661,22.661,0,0,0,2.52-4.733c1.4-4.274-2.931-8.117-6.079-10.151a32.454,32.454,0,0,0-21.03-4.68,2.475,2.475,0,0,0-2.4,2.4,2.414,2.414,0,0,0,2.4,2.4Z"/><path class="cls-3" d="M158.276,180.4a19.488,19.488,0,0,1,3.309-2.013l-.573.242a5.171,5.171,0,0,1,1.126-.342,2.4,2.4,0,0,0,1.435-1.1,2.453,2.453,0,0,0,.242-1.849,2.426,2.426,0,0,0-1.1-1.434l-.574-.242a2.423,2.423,0,0,0-1.276,0,5.152,5.152,0,0,0-1.126.341,14,14,0,0,0-1.7.817c-.753.439-1.464.943-2.181,1.438a2.57,2.57,0,0,0-1.1,1.434,2.454,2.454,0,0,0,.242,1.85,2.424,2.424,0,0,0,1.435,1.1,2.379,2.379,0,0,0,1.849-.241Z"/></g><g id="hand"><g id="right"><path class="cls-1" d="M83.794,368.09c3.426,3.054,7.346,5.255,10.878,7.984,0,0,8.717,5.9,15.273,6.792,4.562.618,16.333-3.556,19.333-16.667S117.9,346.305,117.9,346.305c-3.7-2.37-12.71-2.179-17.064-3.679a13.228,13.228,0,0,1-3.514-1.873"/><path class="cls-3" d="M96.107,342.826c3.369,2.4,7.211,2.9,11.2,3.417,1.789.23,3.317.4,5.158.762a23.12,23.12,0,0,1,2.5.612c.188.059.375.12.56.186.053.019.608.244.339.127s.245.123.294.149c.177.092.349.194.52.3,2.636,1.626,5.05-2.524,2.423-4.145-3.107-1.917-7.123-2.191-10.651-2.644-1.738-.223-3.122-.369-4.916-.736a12.659,12.659,0,0,1-5.012-2.172,2.419,2.419,0,0,0-3.284.861,2.453,2.453,0,0,0,.861,3.284Z"/><path class="cls-3" d="M112.913,356.045q-2.2-.852-4.46-1.564a2.4,2.4,0,0,0-2.71,3.526,2.584,2.584,0,0,0,1.434,1.1q2.254.711,4.46,1.564a2.413,2.413,0,0,0,1.849-.242,2.4,2.4,0,0,0,.861-3.284l-.375-.485a2.4,2.4,0,0,0-1.059-.617Z"/><path class="cls-3" d="M95.883,374c-1.747-1.345-3.582-2.567-5.4-3.815-.887-.611-1.77-1.228-2.634-1.871-.132-.1-.263-.2-.394-.295-.2-.146-.151-.11.017.016-.21-.157-.414-.325-.619-.49q-.7-.561-1.364-1.154a2.4,2.4,0,0,0-3.394,3.394c3.533,3.131,7.633,5.489,11.363,8.359a2.4,2.4,0,0,0,1.85.242,2.4,2.4,0,0,0,1.676-2.952,2.842,2.842,0,0,0-1.1-1.434Z"/></g><g id="left"><path class="cls-1" d="M153.255,342.886c-7.007,1.27-12.432.283-19.448-.089-3.412-.18-9.35,2.333-12.354,3.979-2.563,1.4-5.185,3.851-5.63,7.329l-.315,6.768c-6.152,2.928-12.168,5.886-14.111,6.952a10.281,10.281,0,0,0-3.776,3.243c-1.331,1.979-1.648,5.164,1.479,6.04l.69.193-.986.444c-1.948.876-3.182,3.149-1.733,5.187,1.308,1.839,3.6,2.106,5.647,1.765l2.088-.348-.218.38a6.744,6.744,0,0,0-.951,3.645c.155,1.834,2.577,2.786,4.356,2.747a24.707,24.707,0,0,0,6.111-1.87l.518-.2-1.094,1.153c-1.794,1.889.829,4.914,4.258,4.54a31.922,31.922,0,0,0,7.222-1.778c3.381-1.3,12.545-5.329,20.863-9.741a138.245,138.245,0,0,0,12.929-8.2,66.153,66.153,0,0,0,11.536-9.595"/><path class="cls-3" d="M152.617,340.571a50.069,50.069,0,0,1-12.354.286c-3.856-.284-7.538-.794-11.319.26-6.192,1.725-14.339,5.156-15.435,12.35a2.477,2.477,0,0,0,1.676,2.952,2.419,2.419,0,0,0,2.953-1.676c.449-2.949,2.467-4.819,5.011-6.155a33.242,33.242,0,0,1,8.431-3.179,15.647,15.647,0,0,1,4.381-.078c1.945.136,3.888.309,5.835.432a50.991,50.991,0,0,0,12.1-.563,2.42,2.42,0,0,0,1.676-2.952,2.454,2.454,0,0,0-2.952-1.677Z"/><path class="cls-3" d="M129.037,352.091c-5.758,2.356-11.373,5.09-16.98,7.779-2.825,1.356-5.645,2.722-8.448,4.123-2.354,1.176-4.89,2.293-6.742,4.216a8.441,8.441,0,0,0-2.6,6.034,5.614,5.614,0,0,0,4.194,5.179c2.949.943,4.212-3.69,1.276-4.628a2.222,2.222,0,0,1-.57-.279c.21.165-.1-.284-.025-.028a2.27,2.27,0,0,1,.082-1.321,6.931,6.931,0,0,1,3.091-3.105c1.617-.927,3.314-1.727,4.983-2.553q8.007-3.963,16.12-7.709,2.066-.956,4.144-1.887.819-.366,1.641-.723c.131-.057.851-.365.608-.263-.269.114.379-.157.5-.207a2.476,2.476,0,0,0,1.676-2.952,2.415,2.415,0,0,0-2.952-1.676Z"/><path class="cls-3" d="M121.8,364.111c-7.7,3.923-15.555,7.591-23.4,11.2-2.921,1.342-5.258,4.192-4.024,7.576,1.373,3.763,5.567,4.807,9.144,4.1a26.386,26.386,0,0,0,4.824-1.695c2.465-1.018,4.9-2.106,7.321-3.223,4.368-2.016,8.691-4.125,13-6.252a2.424,2.424,0,0,0,.861-3.284,2.449,2.449,0,0,0-3.283-.861c-3.255,1.6-6.514,3.2-9.794,4.75-4.1,1.942-8.016,3.835-12.07,5.29-1.38.494-3.058,1.108-4.5.5-.958-.4-1.378-1.269-.543-2a8.275,8.275,0,0,1,1.931-.968c3.954-1.828,7.882-3.711,11.811-5.591,3.723-1.782,7.471-3.526,11.148-5.4,2.753-1.4.326-5.546-2.423-4.144Z"/><path class="cls-3" d="M102.516,383.518a8.306,8.306,0,0,0-1.15,5.777,5.673,5.673,0,0,0,3.762,3.728c2.232.823,4.344.408,6.514-.314a134.585,134.585,0,0,0,15.628-6.7c2.341-1.125,4.684-2.264,6.95-3.535,2.694-1.512.277-5.66-2.423-4.145-3.807,2.136-7.8,3.984-11.767,5.787a66.942,66.942,0,0,1-11.731,4.553c-.112.028-.661.112-.2.051s0,0-.108,0a3.479,3.479,0,0,1-1.44-.272c-.088-.04-.626-.457-.471-.246-.206-.28-.064-.107-.063-.351a4.247,4.247,0,0,1,.641-1.912c1.5-2.7-2.645-5.127-4.144-2.422Z"/><path class="cls-3" d="M111.831,388.5a4.667,4.667,0,0,0,0,6.306,7.208,7.208,0,0,0,6.34,2.285,43.579,43.579,0,0,0,12.3-3.823q7.2-3.127,14.185-6.71a122.856,122.856,0,0,0,13.509-8.2,85.393,85.393,0,0,0,13.875-11.229c2.131-2.236-1.257-5.636-3.394-3.394a65.77,65.77,0,0,1-11.051,9.219c-3.46,2.322-6.853,4.733-10.462,6.825-4.283,2.485-8.782,4.633-13.267,6.724-3.137,1.463-6.22,2.885-9.32,4.081a26.349,26.349,0,0,1-6.753,1.757,2.916,2.916,0,0,1-2.238-.53c.133.111-.174-.212-.153-.188.094.1-.246-.111-.034-.037.072.025-.271-.537-.013-.059.055.1-.064.3-.123.371a2.464,2.464,0,0,0,0-3.394,2.421,2.421,0,0,0-3.394,0Z"/></g></g><path class="cls-4" d="M210.309,307.343c-2.28,1.913-19.206,12.486-31.325,18.588-5.957,3-24.66,11.2-28.67,13.758,1.135,5.54,12.457,29.984,16.027,35.195,2.233-.032,19.628-6.876,25.654-9.778,12.587-6.062,30.322-15.551,36.874-19.155"/><path class="cls-3" d="M208.612,305.646c-.354.292.553-.389-.059.046-.229.162-.457.328-.687.489-.635.442-1.279.87-1.925,1.294-1.815,1.193-3.654,2.349-5.5,3.492q-7.386,4.569-14.975,8.8c-8.184,4.543-16.716,8.311-25.19,12.269a100.4,100.4,0,0,0-11.172,5.582,2.484,2.484,0,0,0-1.1,2.71,46.957,46.957,0,0,0,2.82,7.934c1.626,3.953,3.359,7.862,5.158,11.739,1.725,3.719,3.5,7.418,5.406,11.05.671,1.281,1.355,2.558,2.1,3.8.251.42.5.846.787,1.245a2.8,2.8,0,0,0,3.191,1.042,57.321,57.321,0,0,0,9.091-3.051q6.2-2.343,12.289-4.951c9.2-3.939,18.059-8.762,26.909-13.424,8.637-4.55,17.8-8.83,25.45-14.961,4.47-3.582,8.422-8.111,10.274-13.612,1.6-4.747,1.206-9.792.316-14.634a235.657,235.657,0,0,0-6.924-26.41c-2.88-9.384-5.923-18.719-8.744-28.121-2.61-8.7-4.945-17.477-7.811-26.1-1.579-4.75-3.294-9.455-5.285-14.049a49.8,49.8,0,0,0-5.842-10.6,17.511,17.511,0,0,0-3.492-3.519,2.415,2.415,0,0,0-3.284.861,2.456,2.456,0,0,0,.861,3.283c-.485-.36.088.078.211.186q.322.285.624.593c.369.373.967,1.066,1.123,1.263a33.52,33.52,0,0,1,2.187,3.338,71.981,71.981,0,0,1,4.359,9.161c2.967,7.357,5.338,14.951,7.58,22.555,1.885,6.39,3.659,12.81,5.626,19.176,2.362,7.648,4.805,15.271,7.157,22.922,1.992,6.483,3.906,12.974,5.456,19.577,1.689,7.193,3.841,15.026.069,21.912-4.171,7.616-12.269,12.231-19.642,16.249Q215.87,350.306,205.6,355.6c-6.5,3.357-13.326,6.923-19.881,9.691a179.843,179.843,0,0,1-17.9,6.789c-.392.118-.786.234-1.184.33-.163.039-.338.06-.5.109-.456.137.66-.052.207-.034l2.072,1.189a95.494,95.494,0,0,1-6.627-12.563c-2.561-5.356-5.019-10.742-7.132-16.094a37.959,37.959,0,0,1-2.026-5.965l-1.1,2.71a89.6,89.6,0,0,1,9.777-4.927c4.378-2.058,8.781-4.062,13.167-6.1A269.694,269.694,0,0,0,201.6,315.886a89.415,89.415,0,0,0,10.4-6.846,2.418,2.418,0,0,0,0-3.394,2.454,2.454,0,0,0-3.394,0Z"/><path class="cls-4" d="M42.277,307.343c2.28,1.913,19.206,12.486,31.324,18.588,5.958,3,23.571,11.5,27.581,14.054-1.135,5.541-12.457,29.984-16.027,35.195-2.233-.032-18.538-7.172-24.564-10.074C48,359.044,30.269,349.555,23.716,345.951"/><path class="cls-3" d="M40.58,309.04a76.472,76.472,0,0,0,8.468,5.653q7.065,4.394,14.321,8.475c8.245,4.632,16.805,8.646,25.254,12.885,3.8,1.909,7.744,3.727,11.348,6l-1.1-2.711a33.91,33.91,0,0,1-1.686,5.1c-1.018,2.64-1.966,4.859-3.081,7.4-2.424,5.514-4.976,10.982-7.743,16.333a56.232,56.232,0,0,1-3.275,5.8l2.072-1.189c-.451-.018.577.182.236.036a3.765,3.765,0,0,0-.509-.119c-.436-.113-.867-.254-1.294-.4-1.231-.411-2.443-.876-3.651-1.35-3.1-1.215-6.156-2.521-9.2-3.855-6.613-2.9-13.089-6.051-19.521-9.328q-10.981-5.6-21.824-11.462c-7.024-3.789-14.323-7.6-19.627-13.719a19.5,19.5,0,0,1-4.805-9.966,32.371,32.371,0,0,1,.89-10.958c1.434-6.785,3.234-13.461,5.229-20.1,4.2-13.964,8.741-27.814,12.766-41.829,2.146-7.474,4.372-14.934,7.025-22.245,1.239-3.414,2.565-6.8,4.126-10.082.7-1.46,1.433-2.9,2.248-4.3.344-.591.7-1.175,1.079-1.747q.3-.451.613-.893c.063-.089.64-.842.378-.515.349-.436.713-.86,1.1-1.26.2-.207.409-.408.624-.6.1-.087.8-.635.281-.248a2.475,2.475,0,0,0,.861-3.283A2.417,2.417,0,0,0,38.9,203.7,24.568,24.568,0,0,0,32.361,212a100.522,100.522,0,0,0-5.644,12.914c-3.35,9.015-6,18.272-8.637,27.516-2.475,8.687-5.249,17.285-7.947,25.9C7.478,286.81,4.709,295.3,2.69,303.959c-1.185,5.083-2.6,10.253-2.687,15.5a23.091,23.091,0,0,0,4.358,13.977c6.146,8.525,15.792,13.359,24.831,18.207,16.746,8.98,33.684,18.138,51.554,24.727a21.525,21.525,0,0,0,3.463,1.087,2.772,2.772,0,0,0,3.086-1.169c.3-.438.576-.9.846-1.36,1.743-2.957,3.262-6.052,4.764-9.136a215.163,215.163,0,0,0,9.675-22.149,24,24,0,0,0,.916-3.025,2.488,2.488,0,0,0-1.1-2.71c-3.035-1.919-6.331-3.473-9.532-5.09-4.3-2.172-8.615-4.3-12.932-6.426Q66.318,319.682,53.4,311.742c-2.141-1.312-4.271-2.642-6.374-4.014-.731-.477-1.459-.958-2.177-1.455-.241-.167-.48-.338-.719-.508-.1-.068-.187-.147-.286-.211-.354-.227.521.418.126.092a2.47,2.47,0,0,0-3.394,0,2.418,2.418,0,0,0,0,3.394Z"/><path class="cls-3" d="M92.665,104.472a10.427,10.427,0,0,0,8.9,4.276c3.242-.028,6.933-1.386,8.4-4.5a2.454,2.454,0,0,0-.861-3.283,2.429,2.429,0,0,0-3.283.861c-.044.092-.346.786-.458.785.05,0,.432-.472.051-.085-.091.092-.177.188-.272.278-.027.026-.255.262-.293.258q.474-.359.172-.137l-.109.075c-.243.164-.5.294-.755.435-.506.278.445-.149.007.006-.131.047-.261.1-.393.142q-.405.132-.821.224c-.163.036-.334.052-.495.095-.227.061.614-.051.061-.008-.318.024-.634.05-.954.053-.3,0-.591-.008-.886-.031a2.648,2.648,0,0,0-.442-.044c.609-.064.249.035-.019-.015-.312-.059-.621-.132-.926-.221a4.6,4.6,0,0,0-.82-.282q.528.228.18.073l-.128-.06c-.148-.071-.294-.148-.437-.228-.254-.144-.494-.364-.754-.49.47.228.26.206.064.03-.1-.089-.2-.183-.293-.28s-.179-.2-.27-.3c-.278-.3.335.487-.022-.052a2.4,2.4,0,0,0-4.145,2.422Z"/><path class="cls-3" d="M152.219,102.751c-.048.075-.1.148-.15.221q.344-.435.171-.222c-.11.109-.2.237-.312.349q-.141.144-.291.279c-.173.154-.467.221.065-.032-.24.114-.457.32-.69.454q-.213.122-.433.23c-.076.038-.551.257-.165.084s-.172.058-.248.084c-.137.047-.275.09-.413.131-.281.082-.565.15-.851.206-.081.016-.71.107-.262.052s-.106.007-.193.014c-.319.027-.638.04-.958.037-.293,0-.586-.018-.877-.046-.445-.042-.16-.1.062.014a2.355,2.355,0,0,0-.5-.092,8.806,8.806,0,0,1-.888-.238c-.132-.044-.261-.094-.392-.141-.451-.162.462.232.071.024-.258-.137-.514-.266-.759-.427-.055-.036-.11-.073-.164-.111-.2-.147-.143-.1.174.138-.062,0-.255-.222-.293-.257-.094-.09-.178-.186-.27-.277-.324-.323.077-.109.052.087.015-.12-.4-.66-.456-.783a2.411,2.411,0,0,0-3.284-.861,2.466,2.466,0,0,0-.861,3.284c1.466,3.1,5.147,4.459,8.38,4.486a10.4,10.4,0,0,0,8.874-4.264,2.417,2.417,0,0,0-.861-3.284,2.455,2.455,0,0,0-3.283.861Z"/></g></g></g></svg>